<svg version="1.1" id="Layer_1" xmlns="http://www.w3.org/2000/svg" xmlns:xlink="http://www.w3.org/1999/xlink" x="0px" y="0px"
	 width="100%" viewBox="0 0 239 136" enable-background="new 0 0 239 136" xml:space="preserve">
<path fill="#FFFFFF" opacity="1.000000" stroke="none" 
	d="
M9.000000,1.000000 
	C85.888313,1.000000 162.776627,1.000000 240.000000,1.000000 
	C240.000000,24.353159 240.000000,47.707920 239.664673,71.406502 
	C236.825714,69.155487 234.794510,65.324638 231.744629,64.158875 
	C204.182999,53.623886 176.479950,43.451473 148.674347,33.578381 
	C146.768799,32.901764 142.773102,34.814419 141.396805,36.715508 
	C139.321091,39.582733 140.032455,43.276455 143.258621,45.641823 
	C152.715881,52.575714 162.570328,59.018490 171.604965,66.460060 
	C177.428360,71.256622 182.082870,77.472321 187.820633,83.654755 
	C183.845901,84.731255 181.151657,85.327637 178.545120,86.189377 
	C165.413254,90.530884 151.855942,92.956589 138.119690,92.815186 
	C125.497604,92.685249 112.822021,91.525757 100.296082,89.867508 
	C84.809235,87.817268 70.372025,82.353020 59.462940,70.730659 
	C50.159607,60.819031 41.349033,50.333244 33.325024,39.366459 
	C26.439178,29.955256 21.012075,19.480965 14.858888,9.526866 
	C13.047725,6.596923 10.960635,3.837546 9.000000,1.000000 
z"/>
<path fill="#FFFFFF" opacity="1.000000" stroke="none" 
	d="
M135.000000,137.000000 
	C90.408890,137.000000 45.817787,137.000000 1.000000,137.000000 
	C1.000000,95.646049 1.000000,54.291683 1.340804,12.597617 
	C4.246286,17.135790 6.564903,22.163122 9.420451,26.864317 
	C19.103060,42.805149 30.080809,57.769817 42.230400,71.982475 
	C52.503517,84.000015 64.312798,93.100151 79.370796,98.192993 
	C90.908623,102.095261 102.619019,104.217697 114.759995,105.201561 
	C131.472626,106.555908 148.069229,106.665344 164.556961,103.642693 
	C171.976715,102.282440 179.222824,99.975098 186.547729,98.097488 
	C170.124527,106.834869 153.543274,115.122192 137.011551,123.507225 
	C129.985550,127.070885 129.374115,131.608673 135.000000,137.000000 
z"/>
<path fill="#FF9E00" opacity="1.000000" stroke="none" 
	d="
M135.428467,137.000000 
	C129.374115,131.608673 129.985550,127.070885 137.011551,123.507225 
	C153.543274,115.122192 170.124527,106.834869 186.547729,98.097488 
	C179.222824,99.975098 171.976715,102.282440 164.556961,103.642693 
	C148.069229,106.665344 131.472626,106.555908 114.759995,105.201561 
	C102.619019,104.217697 90.908623,102.095261 79.370796,98.192993 
	C64.312798,93.100151 52.503517,84.000015 42.230400,71.982475 
	C30.080809,57.769817 19.103060,42.805149 9.420451,26.864317 
	C6.564903,22.163122 4.246286,17.135790 1.340804,12.128960 
	C1.000000,8.430345 1.000000,4.860690 1.000000,1.000000 
	C3.332827,1.000000 5.671680,1.000000 8.505266,1.000000 
	C10.960635,3.837546 13.047725,6.596923 14.858888,9.526866 
	C21.012075,19.480965 26.439178,29.955256 33.325024,39.366459 
	C41.349033,50.333244 50.159607,60.819031 59.462940,70.730659 
	C70.372025,82.353020 84.809235,87.817268 100.296082,89.867508 
	C112.822021,91.525757 125.497604,92.685249 138.119690,92.815186 
	C151.855942,92.956589 165.413254,90.530884 178.545120,86.189377 
	C181.151657,85.327637 183.845901,84.731255 187.820633,83.654755 
	C182.082870,77.472321 177.428360,71.256622 171.604965,66.460060 
	C162.570328,59.018490 152.715881,52.575714 143.258621,45.641823 
	C140.032455,43.276455 139.321091,39.582733 141.396805,36.715508 
	C142.773102,34.814419 146.768799,32.901764 148.674347,33.578381 
	C176.479950,43.451473 204.182999,53.623886 231.744629,64.158875 
	C234.794510,65.324638 236.825714,69.155487 239.664673,71.875160 
	C240.000000,73.714355 240.000000,75.428719 239.660309,77.702011 
	C237.821655,80.731903 236.834351,83.834435 234.720764,85.546783 
	C229.805130,89.529251 224.621719,93.355766 219.058304,96.332504 
	C199.611526,106.737625 179.957092,116.754623 160.382614,126.921089 
	C153.920090,130.277557 147.460770,133.640182 141.000000,137.000000 
	C139.285645,137.000000 137.571289,137.000000 135.428467,137.000000 
M186.772949,60.322929 
	C185.983078,60.279518 185.193207,60.236107 183.564972,60.146618 
	C184.995102,60.931190 185.644989,61.287712 186.728271,62.200695 
	C188.809341,64.625961 191.069595,66.921616 192.936066,69.502113 
	C197.536453,75.862480 204.403839,81.462433 199.701050,92.319206 
	C209.188889,86.500565 217.258316,81.551811 226.347900,75.977409 
	C221.676682,73.935143 218.364395,72.300430 214.921021,71.017548 
	C205.667480,67.569969 196.357910,64.272751 186.772949,60.322929 
z"/>
<path fill="#FFFFFF" opacity="1.000000" stroke="none" 
	d="
M141.468658,137.000000 
	C147.460770,133.640182 153.920090,130.277557 160.382614,126.921089 
	C179.957092,116.754623 199.611526,106.737625 219.058304,96.332504 
	C224.621719,93.355766 229.805130,89.529251 234.720764,85.546783 
	C236.834351,83.834435 237.821655,80.731903 239.660309,78.130478 
	C240.000000,97.612061 240.000000,117.224121 240.000000,137.000000 
	C207.312622,137.000000 174.624969,137.000000 141.468658,137.000000 
z"/>
<path fill="#FFFFFF" opacity="1.000000" stroke="none" 
	d="
M187.070587,60.915829 
	C196.357910,64.272751 205.667480,67.569969 214.921021,71.017548 
	C218.364395,72.300430 221.676682,73.935143 226.347900,75.977409 
	C217.258316,81.551811 209.188889,86.500565 199.701050,92.319206 
	C204.403839,81.462433 197.536453,75.862480 192.936066,69.502113 
	C191.069595,66.921616 188.809341,64.625961 186.716858,61.752453 
	C186.827164,61.174751 186.948883,61.045288 187.070587,60.915829 
z"/>
<path fill="#FFFFFF" opacity="1.000000" stroke="none" 
	d="
M186.500153,61.474224 
	C185.644989,61.287712 184.995102,60.931190 183.564972,60.146618 
	C185.193207,60.236107 185.983078,60.279518 186.921768,60.619377 
	C186.948883,61.045288 186.827164,61.174751 186.500153,61.474224 
z"/>
</svg>