<svg xmlns="http://www.w3.org/2000/svg" viewBox="0 0 15.61 11.09"><defs><style>.cls-1{fill:#75914a;}</style></defs><g id="图层_2" data-name="图层 2"><g id="图层_1-2" data-name="图层 1"><path class="cls-1" d="M7.21,11.08c-1.22,0-2.49,0-3.77,0-2-.07-3-1-3.11-2.85C.17,6.08.12,3.93,0,1.78,0,1.08.33.84,1,.7A35.11,35.11,0,0,1,10.33.05c1.16,0,2.31.11,3.46.16,1.42.06,1.86.48,1.82,1.86Q15.52,5,15.35,7.92A2.71,2.71,0,0,1,13,10.73C11.1,11.22,9.17,10.86,7.21,11.08ZM2,3.2c.15,1.92.29,3.51.38,5.1A1.48,1.48,0,0,0,4.1,9.84Q8,9.76,11.85,9.61c.52,0,1.1-.13,1.25-.73.38-1.61.15-3.25.35-5.14-1.39,1.14-2.48,2-3.57,2.94A3.16,3.16,0,0,1,6,6.9a8.11,8.11,0,0,1-2-1.52C3.43,4.74,2.83,4.08,2,3.2ZM3.37,1.57A14.26,14.26,0,0,0,7.12,5.72a1,1,0,0,0,1.39,0c1.59-1.38,3.21-2.74,5-4.25C10,1.4,6.8.93,3.37,1.57Z"/></g></g></svg>