<svg xmlns="http://www.w3.org/2000/svg" viewBox="0 0 16.11 13.46"><defs><style>.cls-1{fill:#728f47;}</style></defs><g id="图层_2" data-name="图层 2"><g id="图层_1-2" data-name="图层 1"><path class="cls-1" d="M8.88,7.71A2.39,2.39,0,0,1,10,7.14,2.05,2.05,0,0,0,11.3,4.36c-.19-.56.14-1,.21-1.47.05-.31.14-.64-.18-.86a.59.59,0,0,0-.83.19,1.47,1.47,0,0,1-1.61.39,3,3,0,0,0-1.29,0,1.3,1.3,0,0,1-1.48-.35c-.51-.54-1-.3-1,.38s-.24,1.51-.33,2.25A2.25,2.25,0,0,0,6.2,7.19c.32.13.68.19,1.1.31-.49.61-1.07,1.06-1.49,1.68a.87.87,0,0,1-1.57-.36C4,7.89,3.66,7,2.48,6.89c-.3,0-.68,0-.82.31s.26.47.53.56c.64.2.63.73.63,1.24a1.57,1.57,0,0,0,1.72,1.78A1.64,1.64,0,0,1,5.81,13c-.28.56-.74.59-1.29.38A7.14,7.14,0,0,1,0,6.86C.05,4.36,2.2,1.62,4.74.67A11.47,11.47,0,0,1,10.67.18c2.81.47,4.4,2.58,5.17,5.11a5.86,5.86,0,0,1-2,6.26,13.76,13.76,0,0,0-1.43,1.22,1.13,1.13,0,0,1-1.25.46c-.5-.17-.6-.67-.6-1.17a11,11,0,0,1,0-1.41A2.39,2.39,0,0,0,8.88,7.71Z"/></g></g></svg>