<svg xmlns="http://www.w3.org/2000/svg" viewBox="0 0 15.22 11.65"><defs><style>.cls-1{fill:#74914a;}</style></defs><g id="图层_2" data-name="图层 2"><g id="图层_1-2" data-name="图层 1"><path class="cls-1" d="M15.22,6.22c0,1,0,2,0,2.93a1.65,1.65,0,0,1-1.43,1.74A25,25,0,0,1,1.92,11C1,10.73.35,10.31.22,9.29A22.36,22.36,0,0,1,.15,3.57C.43,1.43,1.79.3,4.2.11A26.47,26.47,0,0,1,12,.52c2.49.56,3.15,1.3,3.17,3.83,0,.62,0,1.25,0,1.87Zm-1.93,0h0c0-.86,0-1.72,0-2.58A1.68,1.68,0,0,0,12,1.87a18.68,18.68,0,0,0-7.69-.51c-1.46.17-1.92.75-2.14,2.21a20.1,20.1,0,0,0,0,5.14A1.27,1.27,0,0,0,3.28,10c2.84.76,5.67.44,8.52.1,1.12-.13,1.58-.65,1.5-1.75C13.24,7.6,13.29,6.89,13.29,6.19Zm-3,2a.83.83,0,0,0,.81.72c.41.06.91,0,1-.43a3.49,3.49,0,0,0-.34-2.72c-.52-.77-1.37-.63-2.15-.47a2.63,2.63,0,0,1-.9.19c-1.38-.15-1.49,0-1.53,1.29,0,.39,0,.78,0,1.17,0,.56.07,1,.74,1.11a1.1,1.1,0,0,0,1.38-.79A2,2,0,0,1,10,6.87C10.35,7.32,10.21,7.76,10.27,8.17ZM4.82,2.46c-.64,0-1.27.2-1.25,1.06A1.42,1.42,0,0,0,5.12,5,1.23,1.23,0,0,0,6.44,3.66C6.34,2.75,5.69,2.42,4.82,2.46Zm0,7c1,0,1.14-.74,1.15-1.53s.19-1.51-.86-1.57C3.92,6.25,4,7.18,3.94,8S3.91,9.39,4.85,9.41Z"/></g></g></svg>