<?xml version="1.0" standalone="no"?>
<!DOCTYPE svg PUBLIC "-//W3C//DTD SVG 20010904//EN"
 "http://www.w3.org/TR/2001/REC-SVG-20010904/DTD/svg10.dtd">
<svg version="1.0" xmlns="http://www.w3.org/2000/svg"
 width="306.000000pt" height="116.000000pt" viewBox="0 0 306.000000 116.000000"
 preserveAspectRatio="xMidYMid meet">

<g transform="translate(0.000000,116.000000) scale(0.100000,-0.100000)"
fill="#000000" stroke="none">
<path d="M2587 1144 c-15 -15 -7 -63 12 -74 33 -17 52 -2 49 39 -3 30 -7 36
-28 39 -14 2 -29 0 -33 -4z"/>
<path d="M2767 1074 c-33 -18 -33 -47 1 -52 46 -7 95 47 56 62 -21 8 -25 8
-57 -10z"/>
<path d="M2432 1068 c-17 -17 -15 -32 8 -53 13 -12 27 -15 45 -11 30 8 32 29
5 56 -23 23 -41 25 -58 8z"/>
<path d="M453 993 c-50 -52 -131 -147 -161 -188 -43 -58 -89 -98 -105 -92 -16
6 -65 105 -91 184 -20 61 -52 95 -67 73 -15 -23 -2 -85 43 -194 51 -124 81
-172 118 -185 27 -9 28 -11 18 -43 -6 -18 -14 -40 -19 -49 -4 -9 -11 -44 -15
-76 -8 -71 5 -103 41 -103 27 0 31 9 38 93 5 47 70 192 145 322 76 133 111
195 116 212 3 10 -3 31 -13 47 l-19 29 -29 -30z"/>
<path d="M2556 969 c-46 -36 -67 -98 -50 -144 10 -25 59 -45 113 -45 38 0 56
6 80 25 40 34 57 86 41 125 -24 57 -132 80 -184 39z m105 -53 c17 -36 -13 -88
-49 -84 -33 4 -40 34 -17 77 19 38 51 41 66 7z"/>
<path d="M2334 918 c-4 -6 3 -19 16 -30 28 -23 83 -21 88 3 5 29 -88 54 -104
27z"/>
<path d="M2810 900 c-13 -9 -12 -12 4 -25 11 -8 32 -15 46 -15 14 0 35 7 46
15 16 13 17 16 4 25 -8 5 -31 10 -50 10 -19 0 -42 -5 -50 -10z"/>
<path d="M540 775 c0 -31 3 -35 25 -35 30 0 34 29 7 53 -27 24 -32 21 -32 -18z"/>
<path d="M1420 775 c0 -31 3 -35 25 -35 30 0 34 29 7 53 -27 24 -32 21 -32
-18z"/>
<path d="M2390 745 c-16 -20 -4 -35 29 -35 31 0 57 23 46 40 -9 15 -61 12 -75
-5z"/>
<path d="M2737 743 c-21 -21 11 -63 48 -63 33 0 40 16 21 45 -16 24 -54 34
-69 18z"/>
<path d="M901 699 c-13 -5 -46 -28 -75 -50 l-51 -41 -22 28 c-16 21 -25 26
-33 18 -16 -16 -40 -111 -41 -161 -2 -75 45 -100 73 -40 26 55 128 158 152
155 20 -3 21 -8 18 -100 -2 -54 0 -98 5 -98 4 0 18 -3 29 -6 18 -5 30 7 73 73
50 76 91 114 139 128 19 5 25 1 37 -29 8 -19 15 -60 15 -90 0 -45 4 -57 20
-66 32 -17 43 19 38 125 -9 175 -73 200 -207 80 -29 -25 -56 -43 -61 -40 -5 3
-11 18 -15 33 -8 38 -42 92 -57 91 -7 0 -24 -5 -37 -10z"/>
<path d="M2562 698 c-20 -20 -15 -76 8 -88 32 -17 60 4 60 43 0 36 -15 57 -40
57 -9 0 -21 -5 -28 -12z"/>
<path d="M1785 673 c-16 -9 -50 -33 -74 -55 -24 -21 -50 -38 -57 -38 -7 0 -21
16 -30 35 -30 63 -46 39 -66 -99 -9 -66 -9 -88 0 -99 18 -22 50 -15 70 14 25
38 119 137 143 150 42 22 49 7 43 -89 -6 -75 -4 -90 10 -105 25 -25 44 -21 50
11 23 121 14 235 -21 275 -19 21 -29 21 -68 0z"/>
<path d="M2100 636 c-72 -16 -92 -28 -115 -69 -23 -44 -15 -79 27 -108 44 -32
110 -40 169 -21 27 9 52 13 56 9 3 -4 12 -40 18 -80 21 -137 -10 -194 -134
-242 -58 -23 -80 -27 -136 -23 -78 5 -105 26 -105 84 0 43 -13 50 -40 22 -30
-32 -22 -91 18 -131 42 -42 103 -55 204 -44 118 12 185 47 247 129 25 34 32
140 15 255 -9 59 -17 122 -19 139 -9 84 -73 109 -205 80z m128 -78 c5 -24 -61
-50 -118 -46 -59 4 -67 30 -13 46 85 26 126 26 131 0z"/>
<path d="M511 579 c-12 -35 -13 -109 -2 -149 5 -17 15 -26 32 -28 26 -3 26 -1
33 74 6 67 5 81 -12 103 -27 36 -38 36 -51 0z"/>
<path d="M1395 599 c-12 -19 -17 -123 -8 -159 7 -28 15 -36 36 -38 l27 -3 0
83 c0 59 -4 90 -16 106 -17 24 -29 28 -39 11z"/>
</g>
</svg>
