<?xml version="1.0" encoding="utf-8"?>
<!-- Generator: Adobe Illustrator 26.3.1, SVG Export Plug-In . SVG Version: 6.00 Build 0)  -->
<svg version="1.1" id="图层_1" xmlns="http://www.w3.org/2000/svg" xmlns:xlink="http://www.w3.org/1999/xlink" x="0px" y="0px"
	 viewBox="0 0 306 116" style="enable-background:new 0 0 306 116;" xml:space="preserve">
<style type="text/css">
	.st0{fill:#FFB000;}
</style>
<path class="st0" d="M258.7,1.6c-1.5,1.5-0.7,6.3,1.2,7.4c3.3,1.7,5.2,0.2,4.9-3.9c-0.3-3-0.7-3.6-2.8-3.9
	C260.6,1,259.1,1.2,258.7,1.6z"/>
<path class="st0" d="M276.7,8.6c-3.3,1.8-3.3,4.7,0.1,5.2c4.6,0.7,9.5-4.7,5.6-6.2C280.3,6.8,279.9,6.8,276.7,8.6z"/>
<path class="st0" d="M243.2,9.2c-1.7,1.7-1.5,3.2,0.8,5.3c1.3,1.2,2.7,1.5,4.5,1.1c3-0.8,3.2-2.9,0.5-5.6
	C246.7,7.7,244.9,7.5,243.2,9.2z"/>
<path d="M45.3,16.7c-5,5.2-13.1,14.7-16.1,18.8c-4.3,5.8-8.9,9.8-10.5,9.2s-6.5-10.5-9.1-18.4c-2-6.1-5.2-9.5-6.7-7.3
	c-1.5,2.3-0.2,8.5,4.3,19.4c5.1,12.4,8.1,17.2,11.8,18.5c2.7,0.9,2.8,1.1,1.8,4.3c-0.6,1.8-1.4,4-1.9,4.9c-0.4,0.9-1.1,4.4-1.5,7.6
	C16.6,80.8,17.9,84,21.5,84c2.7,0,3.1-0.9,3.8-9.3c0.5-4.7,7-19.2,14.5-32.2C47.4,29.2,50.9,23,51.4,21.3c0.3-1-0.3-3.1-1.3-4.7
	l-1.9-2.9L45.3,16.7z"/>
<path class="st0" d="M255.6,19.1c-4.6,3.6-6.7,9.8-5,14.4c1,2.5,5.9,4.5,11.3,4.5c3.8,0,5.6-0.6,8-2.5c4-3.4,5.7-8.6,4.1-12.5
	C271.6,17.3,260.8,15,255.6,19.1z M266.1,24.4c1.7,3.6-1.3,8.8-4.9,8.4c-3.3-0.4-4-3.4-1.7-7.7C261.4,21.3,264.6,21,266.1,24.4z"/>
<path class="st0" d="M233.4,24.2c-0.4,0.6,0.3,1.9,1.6,3c2.8,2.3,8.3,2.1,8.8-0.3C244.3,24,235,21.5,233.4,24.2z"/>
<path class="st0" d="M281,26c-1.3,0.9-1.2,1.2,0.4,2.5c1.1,0.8,3.2,1.5,4.6,1.5s3.5-0.7,4.6-1.5c1.6-1.3,1.7-1.6,0.4-2.5
	c-0.8-0.5-3.1-1-5-1S281.8,25.5,281,26z"/>
<path d="M54,38.5c0,3.1,0.3,3.5,2.5,3.5c3,0,3.4-2.9,0.7-5.3S54,34.6,54,38.5z"/>
<path d="M142,38.5c0,3.1,0.3,3.5,2.5,3.5c3,0,3.4-2.9,0.7-5.3C142.5,34.3,142,34.6,142,38.5z"/>
<path class="st0" d="M239,41.5c-1.6,2-0.4,3.5,2.9,3.5c3.1,0,5.7-2.3,4.6-4C245.6,39.5,240.4,39.8,239,41.5z"/>
<path class="st0" d="M273.7,41.7c-2.1,2.1,1.1,6.3,4.8,6.3c3.3,0,4-1.6,2.1-4.5C279,41.1,275.2,40.1,273.7,41.7z"/>
<path d="M90.1,46.1c-1.3,0.5-4.6,2.8-7.5,5l-5.1,4.1l-2.2-2.8c-1.6-2.1-2.5-2.6-3.3-1.8c-1.6,1.6-4,11.1-4.1,16.1
	c-0.2,7.5,4.5,10,7.3,4c2.6-5.5,12.8-15.8,15.2-15.5c2,0.3,2.1,0.8,1.8,10c-0.2,5.4,0,9.8,0.5,9.8c0.4,0,1.8,0.3,2.9,0.6
	c1.8,0.5,3-0.7,7.3-7.3c5-7.6,9.1-11.4,13.9-12.8c1.9-0.5,2.5-0.1,3.7,2.9c0.8,1.9,1.5,6,1.5,9c0,4.5,0.4,5.7,2,6.6
	c3.2,1.7,4.3-1.9,3.8-12.5c-0.9-17.5-7.3-20-20.7-8c-2.9,2.5-5.6,4.3-6.1,4s-1.1-1.8-1.5-3.3c-0.8-3.8-4.2-9.2-5.7-9.1
	C93.1,45.1,91.4,45.6,90.1,46.1z"/>
<path class="st0" d="M256.2,46.2c-2,2-1.5,7.6,0.8,8.8c3.2,1.7,6-0.4,6-4.3c0-3.6-1.5-5.7-4-5.7C258.1,45,256.9,45.5,256.2,46.2z"/>
<path d="M178.5,48.7c-1.6,0.9-5,3.3-7.4,5.5c-2.4,2.1-5,3.8-5.7,3.8c-0.7,0-2.1-1.6-3-3.5c-3-6.3-4.6-3.9-6.6,9.9
	c-0.9,6.6-0.9,8.8,0,9.9c1.8,2.2,5,1.5,7-1.4c2.5-3.8,11.9-13.7,14.3-15c4.2-2.2,4.9-0.7,4.3,8.9c-0.6,7.5-0.4,9,1,10.5
	c2.5,2.5,4.4,2.1,5-1.1c2.3-12.1,1.4-23.5-2.1-27.5C183.4,46.6,182.4,46.6,178.5,48.7z"/>
<path d="M210,52.4c-7.2,1.6-9.2,2.8-11.5,6.9c-2.3,4.4-1.5,7.9,2.7,10.8c4.4,3.2,11,4,16.9,2.1c2.7-0.9,5.2-1.3,5.6-0.9
	c0.3,0.4,1.2,4,1.8,8c2.1,13.7-1,19.4-13.4,24.2c-5.8,2.3-8,2.7-13.6,2.3c-7.8-0.5-10.5-2.6-10.5-8.4c0-4.3-1.3-5-4-2.2
	c-3,3.2-2.2,9.1,1.8,13.1c4.2,4.2,10.3,5.5,20.4,4.4c11.8-1.2,18.5-4.7,24.7-12.9c2.5-3.4,3.2-14,1.5-25.5
	c-0.9-5.9-1.7-12.2-1.9-13.9C229.6,52,223.2,49.5,210,52.4z M222.8,60.2c0.5,2.4-6.1,5-11.8,4.6c-5.9-0.4-6.7-3-1.3-4.6
	C218.2,57.6,222.3,57.6,222.8,60.2z"/>
<path d="M51.1,58.1C49.9,61.6,49.8,69,50.9,73c0.5,1.7,1.5,2.6,3.2,2.8c2.6,0.3,2.6,0.1,3.3-7.4c0.6-6.7,0.5-8.1-1.2-10.3
	C53.5,54.5,52.4,54.5,51.1,58.1z"/>
<path d="M139.5,56.1c-1.2,1.9-1.7,12.3-0.8,15.9c0.7,2.8,1.5,3.6,3.6,3.8l2.7,0.3v-8.3c0-5.9-0.4-9-1.6-10.6
	C141.7,54.8,140.5,54.4,139.5,56.1z"/>
</svg>
